<mxfile host="app.diagrams.net" modified="2022-10-23T12:17:24.389Z" agent="5.0 (Windows NT 6.1; Win64; x64) AppleWebKit/537.36 (KHTML, like Gecko) Chrome/97.0.4692.99 Safari/537.36" etag="n8m5_YyIpMS3izjJaBWh" version="20.5.1" type="github">
  <diagram id="rfMYhohQq68-rVagmgSR" name="第 1 页">
    <mxGraphModel dx="868" dy="450" grid="1" gridSize="10" guides="1" tooltips="1" connect="1" arrows="1" fold="1" page="1" pageScale="1" pageWidth="827" pageHeight="1169" math="0" shadow="0">
      <root>
        <mxCell id="0" />
        <mxCell id="1" parent="0" />
        <mxCell id="8_DOyfWtjZpgNaLmOrnF-1" value="订单服务" style="rounded=0;whiteSpace=wrap;html=1;fillColor=#66B2FF;" parent="1" vertex="1">
          <mxGeometry x="354" y="40" width="120" height="60" as="geometry" />
        </mxCell>
        <mxCell id="8_DOyfWtjZpgNaLmOrnF-2" value="DB" style="shape=cylinder3;whiteSpace=wrap;html=1;boundedLbl=1;backgroundOutline=1;size=15;fillColor=#FFD966;" parent="1" vertex="1">
          <mxGeometry x="140" y="210" width="60" height="80" as="geometry" />
        </mxCell>
        <mxCell id="8_DOyfWtjZpgNaLmOrnF-3" value="DB" style="shape=cylinder3;whiteSpace=wrap;html=1;boundedLbl=1;backgroundOutline=1;size=15;fillColor=#FFD966;" parent="1" vertex="1">
          <mxGeometry x="260" y="210" width="60" height="80" as="geometry" />
        </mxCell>
        <mxCell id="8_DOyfWtjZpgNaLmOrnF-4" value="DB" style="shape=cylinder3;whiteSpace=wrap;html=1;boundedLbl=1;backgroundOutline=1;size=15;fillColor=#FFD966;" parent="1" vertex="1">
          <mxGeometry x="650" y="220" width="60" height="80" as="geometry" />
        </mxCell>
        <mxCell id="8_DOyfWtjZpgNaLmOrnF-5" value="" style="endArrow=classic;html=1;rounded=0;exitX=0.425;exitY=1;exitDx=0;exitDy=0;exitPerimeter=0;entryX=0.5;entryY=0;entryDx=0;entryDy=0;entryPerimeter=0;" parent="1" source="8_DOyfWtjZpgNaLmOrnF-1" target="8_DOyfWtjZpgNaLmOrnF-2" edge="1">
          <mxGeometry width="50" height="50" relative="1" as="geometry">
            <mxPoint x="420" y="190" as="sourcePoint" />
            <mxPoint x="470" y="140" as="targetPoint" />
          </mxGeometry>
        </mxCell>
        <mxCell id="8_DOyfWtjZpgNaLmOrnF-6" value="" style="endArrow=classic;html=1;rounded=0;exitX=0.5;exitY=1;exitDx=0;exitDy=0;entryX=0.5;entryY=0;entryDx=0;entryDy=0;entryPerimeter=0;" parent="1" source="8_DOyfWtjZpgNaLmOrnF-1" target="8_DOyfWtjZpgNaLmOrnF-3" edge="1">
          <mxGeometry width="50" height="50" relative="1" as="geometry">
            <mxPoint x="430" y="170" as="sourcePoint" />
            <mxPoint x="480" y="120" as="targetPoint" />
          </mxGeometry>
        </mxCell>
        <mxCell id="8_DOyfWtjZpgNaLmOrnF-7" value="" style="endArrow=classic;html=1;rounded=0;exitX=0.75;exitY=1;exitDx=0;exitDy=0;entryX=0.5;entryY=0;entryDx=0;entryDy=0;entryPerimeter=0;" parent="1" source="8_DOyfWtjZpgNaLmOrnF-1" target="8_DOyfWtjZpgNaLmOrnF-4" edge="1">
          <mxGeometry width="50" height="50" relative="1" as="geometry">
            <mxPoint x="420" y="180" as="sourcePoint" />
            <mxPoint x="470" y="130" as="targetPoint" />
          </mxGeometry>
        </mxCell>
        <mxCell id="bDuCJLU8UtdHm_zP0Vqe-1" value="0，N+0，2N+0，..." style="text;html=1;strokeColor=none;fillColor=none;align=center;verticalAlign=middle;whiteSpace=wrap;rounded=0;" vertex="1" parent="1">
          <mxGeometry x="110" y="310" width="120" height="30" as="geometry" />
        </mxCell>
        <mxCell id="bDuCJLU8UtdHm_zP0Vqe-2" value="1，N+1，2N+1，..." style="text;html=1;strokeColor=none;fillColor=none;align=center;verticalAlign=middle;whiteSpace=wrap;rounded=0;" vertex="1" parent="1">
          <mxGeometry x="250" y="310" width="110" height="30" as="geometry" />
        </mxCell>
        <mxCell id="bDuCJLU8UtdHm_zP0Vqe-3" value="DB" style="shape=cylinder3;whiteSpace=wrap;html=1;boundedLbl=1;backgroundOutline=1;size=15;fillColor=#FFD966;" vertex="1" parent="1">
          <mxGeometry x="380" y="210" width="60" height="80" as="geometry" />
        </mxCell>
        <mxCell id="bDuCJLU8UtdHm_zP0Vqe-4" value="DB" style="shape=cylinder3;whiteSpace=wrap;html=1;boundedLbl=1;backgroundOutline=1;size=15;fillColor=#FFD966;" vertex="1" parent="1">
          <mxGeometry x="520" y="210" width="60" height="80" as="geometry" />
        </mxCell>
        <mxCell id="bDuCJLU8UtdHm_zP0Vqe-5" value="2，N+2，2N+2，..." style="text;html=1;strokeColor=none;fillColor=none;align=center;verticalAlign=middle;whiteSpace=wrap;rounded=0;" vertex="1" parent="1">
          <mxGeometry x="380" y="310" width="110" height="30" as="geometry" />
        </mxCell>
        <mxCell id="bDuCJLU8UtdHm_zP0Vqe-6" value="3，N+3，2N+3，..." style="text;html=1;strokeColor=none;fillColor=none;align=center;verticalAlign=middle;whiteSpace=wrap;rounded=0;" vertex="1" parent="1">
          <mxGeometry x="520" y="310" width="110" height="30" as="geometry" />
        </mxCell>
        <mxCell id="bDuCJLU8UtdHm_zP0Vqe-7" value="N-1，N+(N-1)，2N+(N-1)，..." style="text;html=1;strokeColor=none;fillColor=none;align=center;verticalAlign=middle;whiteSpace=wrap;rounded=0;" vertex="1" parent="1">
          <mxGeometry x="660" y="310" width="160" height="30" as="geometry" />
        </mxCell>
        <mxCell id="bDuCJLU8UtdHm_zP0Vqe-8" value=".........." style="text;html=1;strokeColor=none;fillColor=none;align=center;verticalAlign=middle;whiteSpace=wrap;rounded=0;" vertex="1" parent="1">
          <mxGeometry x="590" y="235" width="60" height="30" as="geometry" />
        </mxCell>
        <mxCell id="bDuCJLU8UtdHm_zP0Vqe-9" value="" style="endArrow=classic;html=1;rounded=0;exitX=0.567;exitY=1.017;exitDx=0;exitDy=0;exitPerimeter=0;entryX=0.5;entryY=0;entryDx=0;entryDy=0;entryPerimeter=0;" edge="1" parent="1" source="8_DOyfWtjZpgNaLmOrnF-1" target="bDuCJLU8UtdHm_zP0Vqe-3">
          <mxGeometry width="50" height="50" relative="1" as="geometry">
            <mxPoint x="620" y="100" as="sourcePoint" />
            <mxPoint x="670" y="50" as="targetPoint" />
          </mxGeometry>
        </mxCell>
        <mxCell id="bDuCJLU8UtdHm_zP0Vqe-10" value="" style="endArrow=classic;html=1;rounded=0;exitX=0.642;exitY=1;exitDx=0;exitDy=0;exitPerimeter=0;entryX=0.333;entryY=0;entryDx=0;entryDy=0;entryPerimeter=0;" edge="1" parent="1" source="8_DOyfWtjZpgNaLmOrnF-1" target="bDuCJLU8UtdHm_zP0Vqe-4">
          <mxGeometry width="50" height="50" relative="1" as="geometry">
            <mxPoint x="560" y="110" as="sourcePoint" />
            <mxPoint x="610" y="60" as="targetPoint" />
          </mxGeometry>
        </mxCell>
        <mxCell id="bDuCJLU8UtdHm_zP0Vqe-11" value="N为机器数，也是Step" style="text;html=1;strokeColor=none;fillColor=none;align=center;verticalAlign=middle;whiteSpace=wrap;rounded=0;" vertex="1" parent="1">
          <mxGeometry x="70" y="110" width="120" height="30" as="geometry" />
        </mxCell>
      </root>
    </mxGraphModel>
  </diagram>
</mxfile>
